HIERARCHY
ROOT Hips
{
  OFFSET 10.196 28.796 -238.786
  CHANNELS 6 Xposition Yposition Zposition Zrotation Xrotation Yrotation
  JOINT LeftUpLeg
  {
    OFFSET 7.547 -7.095 2.440
    CHANNELS 6 Xposition Yposition Zposition Zrotation Xrotation Yrotation
    JOINT LeftLeg
    {
      OFFSET -0.000 -51.016 0.000
      CHANNELS 6 Xposition Yposition Zposition Zrotation Xrotation Yrotation
      JOINT LeftFoot
      {
        OFFSET -0.000 -39.902 -0.000
        CHANNELS 6 Xposition Yposition Zposition Zrotation Xrotation Yrotation
        End Site
        {
          OFFSET 0.000 -8.600 4.965
        }
      }
    }
  }
  JOINT RightUpLeg
  {
    OFFSET -7.395 -7.501 2.247
    CHANNELS 6 Xposition Yposition Zposition Zrotation Xrotation Yrotation
    JOINT RightLeg
    {
      OFFSET -0.000 -51.278 0.000
      CHANNELS 6 Xposition Yposition Zposition Zrotation Xrotation Yrotation
      JOINT RightFoot
      {
        OFFSET -0.000 -41.562 -0.000
        CHANNELS 6 Xposition Yposition Zposition Zrotation Xrotation Yrotation
        End Site
        {
          OFFSET 0.000 -8.047 4.646
        }
      }
    }
  }
  JOINT Spine
  {
    OFFSET 0.000 5.743 -5.743
    CHANNELS 6 Xposition Yposition Zposition Zrotation Xrotation Yrotation
    JOINT LeftShoulder
    {
      OFFSET -0.000 35.186 0.000
      CHANNELS 6 Xposition Yposition Zposition Zrotation Xrotation Yrotation
      JOINT LeftArm
      {
        OFFSET 19.942 0.000 -0.000
        CHANNELS 6 Xposition Yposition Zposition Zrotation Xrotation Yrotation
        JOINT LeftForeArm
        {
          OFFSET 24.265 0.000 0.000
          CHANNELS 6 Xposition Yposition Zposition Zrotation Xrotation Yrotation
          JOINT LeftHand
          {
            OFFSET 27.098 -0.000 -0.000
            CHANNELS 6 Xposition Yposition Zposition Zrotation Xrotation Yrotation
            JOINT LeftHandThumb1
            {
            OFFSET 4.970 -0.620 3.390
            CHANNELS 6 Xposition Yposition Zposition Zrotation Xrotation Yrotation
              JOINT LeftHandThumb2
              {
              OFFSET 2.150 -0.000 0.000
              CHANNELS 6 Xposition Yposition Zposition Zrotation Xrotation Yrotation
                JOINT LeftHandThumb3
                {
                OFFSET 2.200 -0.000 0.000
                CHANNELS 6 Xposition Yposition Zposition Zrotation Xrotation Yrotation
                  JOINT LeftHandThumb4
                  {
                  OFFSET 1.700 -0.000 0.000
                  CHANNELS 6 Xposition Yposition Zposition Zrotation Xrotation Yrotation
                  }
                }
              }
            }
            JOINT LeftHandIndex1
            {
            OFFSET 8.730 0.680 2.070
            CHANNELS 6 Xposition Yposition Zposition Zrotation Xrotation Yrotation
              JOINT LeftHandIndex2
              {
              OFFSET 2.670 -0.000 0.000
              CHANNELS 6 Xposition Yposition Zposition Zrotation Xrotation Yrotation
                JOINT LeftHandIndex3
                {
                OFFSET 2.130 -0.000 0.000
                CHANNELS 6 Xposition Yposition Zposition Zrotation Xrotation Yrotation
                  JOINT LeftHandIndex4
                  {
                  OFFSET 1.800 -0.000 0.000
                  CHANNELS 6 Xposition Yposition Zposition Zrotation Xrotation Yrotation
                  }
                }
              }
            }
            JOINT LeftHandMiddle1
            {
            OFFSET 9.220 0.670 0.550
            CHANNELS 6 Xposition Yposition Zposition Zrotation Xrotation Yrotation
              JOINT LeftHandMiddle2
              {
              OFFSET 2.660 -0.000 0.000
              CHANNELS 6 Xposition Yposition Zposition Zrotation Xrotation Yrotation
                JOINT LeftHandMiddle3
                {
                OFFSET 2.280 -0.000 0.000
                CHANNELS 6 Xposition Yposition Zposition Zrotation Xrotation Yrotation
                  JOINT LeftHandMiddle4
                  {
                  OFFSET 1.500 -0.000 0.000
                  CHANNELS 6 Xposition Yposition Zposition Zrotation Xrotation Yrotation
                  }
                }
              }
            }
            JOINT LeftHandRing1
            {
            OFFSET 9.250 0.670 -1.130
            CHANNELS 6 Xposition Yposition Zposition Zrotation Xrotation Yrotation
              JOINT LeftHandRing2
              {
              OFFSET 2.470 -0.000 0.000
              CHANNELS 6 Xposition Yposition Zposition Zrotation Xrotation Yrotation
                JOINT LeftHandRing3
                {
                OFFSET 2.210 -0.000 0.000
                CHANNELS 6 Xposition Yposition Zposition Zrotation Xrotation Yrotation
                  JOINT LeftHandRing4
                  {
                  OFFSET 1.800 -0.000 0.000
                  CHANNELS 6 Xposition Yposition Zposition Zrotation Xrotation Yrotation
                  }
                }
              }
            }
            JOINT LeftHandPinky1
            {
            OFFSET 9.350 0.660 -2.720
            CHANNELS 6 Xposition Yposition Zposition Zrotation Xrotation Yrotation
              JOINT LeftHandPinky2
              {
              OFFSET 1.630 -0.000 0.000
              CHANNELS 6 Xposition Yposition Zposition Zrotation Xrotation Yrotation
                JOINT LeftHandPinky3
                {
                OFFSET 1.710 -0.000 0.000
                CHANNELS 6 Xposition Yposition Zposition Zrotation Xrotation Yrotation
                  JOINT LeftHandPinky4
                  {
                  OFFSET 1.800 -0.000 0.000
                  CHANNELS 6 Xposition Yposition Zposition Zrotation Xrotation Yrotation
                  }
                }
              }
            }
          }
        }
      }
    }
    JOINT RightShoulder
    {
      OFFSET -0.000 35.186 0.000
      CHANNELS 6 Xposition Yposition Zposition Zrotation Xrotation Yrotation
      JOINT RightArm
      {
        OFFSET -19.776 0.000 -0.000
        CHANNELS 6 Xposition Yposition Zposition Zrotation Xrotation Yrotation
        JOINT RightForeArm
        {
          OFFSET -24.421 0.000 0.000
          CHANNELS 6 Xposition Yposition Zposition Zrotation Xrotation Yrotation
          JOINT RightHand
          {
            OFFSET -25.456 0.000 -0.000
            CHANNELS 6 Xposition Yposition Zposition Zrotation Xrotation Yrotation
            JOINT RightHandThumb1
            {
            OFFSET -4.970 -0.620 3.390
            CHANNELS 6 Xposition Yposition Zposition Zrotation Xrotation Yrotation
              JOINT RightHandThumb2
              {
              OFFSET -2.150 0.000 0.000
              CHANNELS 6 Xposition Yposition Zposition Zrotation Xrotation Yrotation
                JOINT RightHandThumb3
                {
                OFFSET -2.200 0.000 0.000
                CHANNELS 6 Xposition Yposition Zposition Zrotation Xrotation Yrotation
                  JOINT RightHandThumb4
                  {
                  OFFSET -1.700 0.000 0.000
                  CHANNELS 6 Xposition Yposition Zposition Zrotation Xrotation Yrotation
                  }
                }
              }
            }
            JOINT RightHandIndex1
            {
            OFFSET -8.730 0.680 2.070
            CHANNELS 6 Xposition Yposition Zposition Zrotation Xrotation Yrotation
              JOINT RightHandIndex2
              {
              OFFSET -2.670 0.000 0.000
              CHANNELS 6 Xposition Yposition Zposition Zrotation Xrotation Yrotation
                JOINT RightHandIndex3
                {
                OFFSET -2.130 0.000 0.000
                CHANNELS 6 Xposition Yposition Zposition Zrotation Xrotation Yrotation
                  JOINT RightHandIndex4
                  {
                  OFFSET -1.800 0.000 0.000
                  CHANNELS 6 Xposition Yposition Zposition Zrotation Xrotation Yrotation
                  }
                }
              }
            }
            JOINT RightHandMiddle1
            {
            OFFSET -9.220 0.670 0.550
            CHANNELS 6 Xposition Yposition Zposition Zrotation Xrotation Yrotation
              JOINT RightHandMiddle2
              {
              OFFSET -2.660 0.000 0.000
              CHANNELS 6 Xposition Yposition Zposition Zrotation Xrotation Yrotation
                JOINT RightHandMiddle3
                {
                OFFSET -2.280 0.000 0.000
                CHANNELS 6 Xposition Yposition Zposition Zrotation Xrotation Yrotation
                  JOINT RightHandMiddle4
                  {
                  OFFSET -1.500 0.000 0.000
                  CHANNELS 6 Xposition Yposition Zposition Zrotation Xrotation Yrotation
                  }
                }
              }
            }
            JOINT RightHandRing1
            {
            OFFSET -9.250 0.670 -1.130
            CHANNELS 6 Xposition Yposition Zposition Zrotation Xrotation Yrotation
              JOINT RightHandRing2
              {
              OFFSET -2.470 0.000 0.000
              CHANNELS 6 Xposition Yposition Zposition Zrotation Xrotation Yrotation
                JOINT RightHandRing3
                {
                OFFSET -2.210 0.000 0.000
                CHANNELS 6 Xposition Yposition Zposition Zrotation Xrotation Yrotation
                  JOINT RightHandRing4
                  {
                  OFFSET -1.800 0.000 0.000
                  CHANNELS 6 Xposition Yposition Zposition Zrotation Xrotation Yrotation
                  }
                }
              }
            }
            JOINT RightHandPinky1
            {
            OFFSET -9.350 0.660 -2.720
            CHANNELS 6 Xposition Yposition Zposition Zrotation Xrotation Yrotation
              JOINT RightHandPinky2
              {
              OFFSET -1.630 0.000 0.000
              CHANNELS 6 Xposition Yposition Zposition Zrotation Xrotation Yrotation
                JOINT RightHandPinky3
                {
                OFFSET -1.710 0.000 0.000
                CHANNELS 6 Xposition Yposition Zposition Zrotation Xrotation Yrotation
                  JOINT RightHandPinky4
                  {
                  OFFSET -1.800 0.000 0.000
                  CHANNELS 6 Xposition Yposition Zposition Zrotation Xrotation Yrotation
                  }
                }
              }
            }
          }
        }
      }
    }
    JOINT Neck
    {
      OFFSET -0.000 35.186 0.000
      CHANNELS 6 Xposition Yposition Zposition Zrotation Xrotation Yrotation
      JOINT Head
      {
        OFFSET -0.000 18.944 -0.000
        CHANNELS 6 Xposition Yposition Zposition Zrotation Xrotation Yrotation
        End Site
        {
          OFFSET -0.000 0.076 -0.000
        }
      }
    }
  }
}
MOTION
Frames:	4
Frame Time:	0.0333333
8.31837 28.0575 -238.105 0.540649 1.78823 -4.8575 7.67506 -7.36623 1.87471 3.44506 -17.5612 -0.296693 -3.35276e-06 -50.7973 0 -6.7802 11.695 1.38055 -1.86265e-06 -39.3161 -4.76837e-05 -2.95441 -4.87228 -1.76543 -7.55008 -7.62561 1.58448 -3.47967 -10.7314 -2.35951 -2.98023e-06 -50.1529 0 4.81492 35.1225 1.04383e-06 2.98023e-06 -43.8152 1.19209e-05 -5.22345 -21.8487 -4.73941 3.72529e-06 6.07562 -6.07564 0.235445 -3.71884 -0.806934 -5.96046e-06 35.1855 -7.15256e-05 -30.8693 1.26999e-05 -2.87544 20.1033 0 2.38419e-05 -39.087 25.6028 5.11933 23.8602 5.96046e-06 -7.15256e-05 -1.31808e-05 -3.41509e-06 -68.27 25.3533 2.38419e-05 1.19209e-05 0.105644 0.0187714 -16.494 0.0062 0.0497 0.0339 0 0 0 0 0.0215 0 0 0 0 0 0.022 0 0 0 0 0 0.017 0 0 0 0 -0.0068 0.0873 0.0207 0 0 0 0 0.0267 0 0 0 0 0 0.0213 0 0 0 0 0 0.018 0 0 0 0 -0.0067 0.0922 0.0055 0 0 0 0 0.0266 0 0 0 0 0 0.0228 0 0 0 0 0 0.015 0 0 0 0 -0.0067 0.0925 -0.0113 0 0 0 0 0.0247 0 0 0 0 0 0.0221 0 0 0 0 0 0.018 0 0 0 0 -0.0066 0.0935 -0.0272 0 0 0 0 0.0163 0 0 0 0 0 0.0171 0 0 0 0 0 0.018 0 0 0 0 -5.96046e-06 35.1855 -7.15256e-05 29.6841 -2.98821e-06 2.9765 -19.4213 1.78814e-05 0 40.9205 27.4557 2.0139 -24.4304 -5.96046e-06 4.76837e-05 2.04041e-06 5.12264e-06 46.564 -27.27 1.19209e-05 0 12.6544 0.0710271 4.18339 -0.0062 0.0497 0.0339 1.61149e-43 0 0 0 0.0215 0 0 -1.61149e-43 0 0 0.022 0 0 -1.61149e-43 0 0 0.017 0 0 0 0 0.0068 0.0873 0.0207 1.61149e-43 0 0 0 0.0267 0 3.20897e-43 0 0 0 0.0213 0 4.00771e-43 0 0 0 0.018 0 0 0 0 0.0067 0.0922 0.0055 1.61149e-43 0 0 0 0.0266 0 3.20897e-43 0 0 0 0.0228 0 4.00771e-43 0 0 0 0.015 0 0 0 0 0.0067 0.0925 -0.0113 1.61149e-43 0 0 0 0.0247 0 3.20897e-43 0 0 0 0.0221 0 4.00771e-43 0 0 0 0.018 0 0 0 0 0.0066 0.0935 -0.0272 1.61149e-43 0 0 0 0.0163 0 3.20897e-43 0 0 0 0.0171 0 4.00771e-43 0 0 0 0.018 0 0 0 0 -5.96046e-06 35.1855 -7.15256e-05 -1.16282 6.43454 0.130333 -5.96046e-06 20.4297 -4.76837e-05 1.01386e-05 -9.8184e-06 8.53774e-07 
8.31837 28.0575 -238.105 0.540649 1.78823 -4.8575 7.67506 -7.36623 1.87471 3.44506 -17.5612 -0.296693 -3.35276e-06 -50.7973 0 -6.7802 11.695 1.38055 -1.86265e-06 -39.3161 -4.76837e-05 -2.95441 -4.87228 -1.76543 -7.55008 -7.62561 1.58448 -3.47967 -10.7314 -2.35951 -2.98023e-06 -50.1529 0 4.81492 35.1225 1.04383e-06 2.98023e-06 -43.8152 1.19209e-05 -5.22345 -21.8487 -4.73941 3.72529e-06 6.07562 -6.07564 0.235445 -3.71884 -0.806934 -5.96046e-06 35.1855 -7.15256e-05 -30.8693 1.26999e-05 -2.87544 20.1033 0 2.38419e-05 -39.087 25.6028 5.11933 23.8602 5.96046e-06 -7.15256e-05 -1.31808e-05 -3.41509e-06 -68.27 25.3533 2.38419e-05 1.19209e-05 0.105644 0.0187714 -16.494 0.0062 0.0497 0.0339 0 0 0 0 0.0215 0 0 0 0 0 0.022 0 0 0 0 0 0.017 0 0 0 0 -0.0068 0.0873 0.0207 0 0 0 0 0.0267 0 0 0 0 0 0.0213 0 0 0 0 0 0.018 0 0 0 0 -0.0067 0.0922 0.0055 0 0 0 0 0.0266 0 0 0 0 0 0.0228 0 0 0 0 0 0.015 0 0 0 0 -0.0067 0.0925 -0.0113 0 0 0 0 0.0247 0 0 0 0 0 0.0221 0 0 0 0 0 0.018 0 0 0 0 -0.0066 0.0935 -0.0272 0 0 0 0 0.0163 0 0 0 0 0 0.0171 0 0 0 0 0 0.018 0 0 0 0 -5.96046e-06 35.1855 -7.15256e-05 29.6841 -2.98821e-06 2.9765 -19.4213 1.78814e-05 0 40.9205 27.4557 2.0139 -24.4304 -5.96046e-06 4.76837e-05 2.04041e-06 5.12264e-06 46.564 -27.27 1.19209e-05 0 12.6544 0.0710271 4.18339 -0.0062 0.0497 0.0339 1.61149e-43 0 0 0 0.0215 0 0 -1.61149e-43 0 0 0.022 0 0 -1.61149e-43 0 0 0.017 0 0 0 0 0.0068 0.0873 0.0207 1.61149e-43 0 0 0 0.0267 0 3.20897e-43 0 0 0 0.0213 0 4.00771e-43 0 0 0 0.018 0 0 0 0 0.0067 0.0922 0.0055 1.61149e-43 0 0 0 0.0266 0 3.20897e-43 0 0 0 0.0228 0 4.00771e-43 0 0 0 0.015 0 0 0 0 0.0067 0.0925 -0.0113 1.61149e-43 0 0 0 0.0247 0 3.20897e-43 0 0 0 0.0221 0 4.00771e-43 0 0 0 0.018 0 0 0 0 0.0066 0.0935 -0.0272 1.61149e-43 0 0 0 0.0163 0 3.20897e-43 0 0 0 0.0171 0 4.00771e-43 0 0 0 0.018 0 0 0 0 -5.96046e-06 35.1855 -7.15256e-05 -1.16282 6.43454 0.130333 -5.96046e-06 20.4297 -4.76837e-05 1.01386e-05 -9.8184e-06 8.53774e-07 
8.40817 28.0627 -238.453 0.647594 2.01377 -4.6522 7.66057 -7.34454 1.83294 3.44998 -17.6838 -0.264343 6.33299e-06 -50.8954 0 -6.86467 10.4948 1.25619 -2.6077e-06 -39.2525 0 -3.42338 -4.195 -2.04831 -7.55277 -7.65461 1.56615 -3.26227 -9.66603 -2.0966 5.96046e-06 -50.2786 4.76837e-05 4.74765 32.996 2.5449e-06 -5.96046e-06 -43.8737 -2.38419e-05 -5.99817 -23.2459 -5.54889 -2.23517e-06 6.06256 -6.06258 0.211199 -3.53005 -0.602887 -2.98023e-06 35.1856 0 -30.7761 1.12058e-05 -2.95939 20.059 0 -2.38419e-05 -38.7956 25.434 4.26442 23.7136 5.96046e-06 9.53674e-05 3.03445e-05 -3.4151e-06 -69.8474 25.7672 -1.19209e-05 -2.38419e-05 -0.912675 0.0784526 -13.8589 0.0062 0.0497 0.0339 0 0 0 0 0.0215 0 0 0 0 0 0.022 0 0 0 0 0 0.017 0 0 0 0 -0.0068 0.0873 0.0207 0 0 0 0 0.0267 0 0 0 0 0 0.0213 0 0 0 0 0 0.018 0 0 0 0 -0.0067 0.0922 0.0055 0 0 0 0 0.0266 0 0 0 0 0 0.0228 0 0 0 0 0 0.015 0 0 0 0 -0.0067 0.0925 -0.0113 0 0 0 0 0.0247 0 0 0 0 0 0.0221 0 0 0 0 0 0.018 0 0 0 0 -0.0066 0.0935 -0.0272 0 0 0 0 0.0163 0 0 0 0 0 0.0171 0 0 0 0 0 0.018 0 0 0 0 -2.98023e-06 35.1856 0 29.8824 -2.56132e-06 3.04173 -19.5165 -2.38419e-05 0 41.5692 26.2489 2.00081 -24.3101 0 -7.15256e-05 2.47029e-06 0 46.2721 -26.8877 5.96046e-06 1.19209e-05 13.1625 0.0577783 4.24843 -0.0062 0.0497 0.0339 1.61149e-43 0 0 0 0.0215 0 0 -1.61149e-43 0 0 0.022 0 0 -1.61149e-43 0 0 0.017 0 0 0 0 0.0068 0.0873 0.0207 1.61149e-43 0 0 0 0.0267 0 3.20897e-43 0 0 0 0.0213 0 4.00771e-43 0 0 0 0.018 0 0 0 0 0.0067 0.0922 0.0055 1.61149e-43 0 0 0 0.0266 0 3.20897e-43 0 0 0 0.0228 0 4.00771e-43 0 0 0 0.015 0 0 0 0 0.0067 0.0925 -0.0113 1.61149e-43 0 0 0 0.0247 0 3.20897e-43 0 0 0 0.0221 0 4.00771e-43 0 0 0 0.018 0 0 0 0 0.0066 0.0935 -0.0272 1.61149e-43 0 0 0 0.0163 0 3.20897e-43 0 0 0 0.0171 0 4.00771e-43 0 0 0 0.018 0 0 0 0 -2.98023e-06 35.1856 0 -0.917995 6.69614 0.107052 -1.49012e-06 20.3144 9.53674e-05 1.00852e-05 -1.10991e-05 1.28066e-06 
8.43944 28.0874 -238.736 0.697495 2.21419 -4.42706 7.64414 -7.3336 1.78356 3.43986 -17.9561 -0.0648987 -1.49012e-06 -50.9627 4.76837e-05 -6.73829 9.9821 1.17327 8.3819e-07 -39.2498 -2.38419e-05 -3.65843 -3.95836 -2.18145 -7.55844 -7.65623 1.57423 -3.22395 -9.15671 -1.90533 -2.98023e-06 -50.2786 4.76837e-05 4.93211 31.6069 1.00248e-06 2.98023e-06 -43.6237 -3.57628e-05 -6.31185 -23.6115 -5.8659 4.47035e-06 6.0554 -6.05538 0.142336 -3.46067 -0.432472 -5.96046e-06 35.1856 -2.38419e-05 -30.5975 1.32335e-05 -2.97348 19.9926 0 0 -38.7084 25.5249 3.6115 23.6993 1.19209e-05 2.38419e-05 6.53813e-06 -8.53774e-06 -70.2424 25.8788 0 -5.96046e-06 -1.18293 0.0871405 -12.9397 0.0062 0.0497 0.0339 -13.2918 0 0 0 0.0215 0 0 -13.2918 0 0 0.022 0 0 -13.2918 0 0 0.017 0 0 0 0 -0.0068 0.0873 0.0207 -13.2918 0 0 0 0.0267 0 -23.6299 0 0 0 0.0213 0 -26.5837 0 0 0 0.018 0 0 0 0 -0.0067 0.0922 0.0055 -13.2918 0 0 0 0.0266 0 -23.6299 0 0 0 0.0228 0 -26.5837 0 0 0 0.015 0 0 0 0 -0.0067 0.0925 -0.0113 -13.2918 0 0 0 0.0247 0 -23.6299 0 0 0 0.0221 0 -26.5837 0 0 0 0.018 0 0 0 0 -0.0066 0.0935 -0.0272 -13.2918 0 0 0 0.0163 0 -23.6299 0 0 0 0.0171 0 -26.5837 0 0 0 0.018 0 0 0 0 -5.96046e-06 35.1856 -2.38419e-05 30.0511 -4.9092e-06 3.03914 -19.5609 1.19209e-05 2.38419e-05 41.79 25.5757 1.81087 -24.2725 -1.19209e-05 0 3.42792e-06 8.53774e-06 46.2489 -26.7299 0 0 13.3031 0.0533459 4.25012 -0.0062 0.0497 0.0339 1.61149e-43 0 0 0 0.0215 0 0 -1.61149e-43 0 0 0.022 0 0 -1.61149e-43 0 0 0.017 0 0 0 0 0.0068 0.0873 0.0207 1.61149e-43 0 0 0 0.0267 0 3.20897e-43 0 0 0 0.0213 0 4.00771e-43 0 0 0 0.018 0 0 0 0 0.0067 0.0922 0.0055 1.61149e-43 0 0 0 0.0266 0 3.20897e-43 0 0 0 0.0228 0 4.00771e-43 0 0 0 0.015 0 0 0 0 0.0067 0.0925 -0.0113 1.61149e-43 0 0 0 0.0247 0 3.20897e-43 0 0 0 0.0221 0 4.00771e-43 0 0 0 0.018 0 0 0 0 0.0066 0.0935 -0.0272 1.61149e-43 0 0 0 0.0163 0 3.20897e-43 0 0 0 0.0171 0 4.00771e-43 0 0 0 0.018 0 0 0 0 -5.96046e-06 35.1856 -2.38419e-05 -0.761735 6.75302 0.089577 -7.45058e-07 20.2676 -2.38419e-05 1.00318e-05 -1.02453e-05 -4.26887e-07 
